<svg id="Layer_1" data-name="Layer 1" xmlns="http://www.w3.org/2000/svg" viewBox="0 0 124.72 85.6"><title>OU_Master_Logo_Dark_Blue_RGB</title><path d="M97,27.8c-1.85,0-3.45.31-3.45,2.34a5.23,5.23,0,0,0,.5,2.35H100a5.9,5.9,0,0,0,.47-2.35c0-2-1.59-2.34-3.44-2.34M91.9,33.2l.57-.21a6.48,6.48,0,0,1-.84-3c0-3.51,2.17-4.34,5.39-4.34s5.38,1,5.38,4.5a5.57,5.57,0,0,1-.55,2.35h3.52v2.13H91.9Z" transform="translate(-2.84 -2.84)" fill="#1e4b9b"/><polygon points="99.3 79.17 99.3 81.36 87.51 81.36 87.51 85.21 85.54 85.21 85.54 75.3 87.51 75.3 87.51 79.17 99.3 79.17" fill="#1e4b9b"/><path d="M94.85,69.82c-1,0-1.28.77-1.28,1.74a5.9,5.9,0,0,0,.5,2.47h8.06v2.12H88.37V74h3.92a6.93,6.93,0,0,1-.66-2.73c0-2.57,1.23-3.61,3.29-3.61h7.21l0,2.13Z" transform="translate(-2.84 -2.84)" fill="#1e4b9b"/><path d="M95.25,45.89c2.86,0,5.17-.48,5.17-3.36s-2.31-3.32-5.17-3.32-5.18.46-5.18,3.34,2.31,3.34,5.18,3.34m0,2.29c-3.74,0-7.17-1.11-7.17-5.64s3.43-5.62,7.17-5.62,7.15,1.09,7.15,5.62S99,48.18,95.25,48.18" transform="translate(-2.84 -2.84)" fill="#1e4b9b"/><path d="M93.57,8c0-.23,0-1.68,1.31-1.68h7.25V4.15H94.92c-2.06,0-3.29,1.06-3.29,3.61a6.38,6.38,0,0,0,.84,3.12l-.57.21v1.42h10.23V10.38H94.06A5.73,5.73,0,0,1,93.57,8" transform="translate(-2.84 -2.84)" fill="#1e4b9b"/><path d="M96.18,21.53V17.06c-1.36,0-2.8.35-2.8,2.06s1.17,2.31,2.8,2.41m1.74,0c1.79-.15,2.5-.94,2.5-3a10.08,10.08,0,0,0-.57-3.15h1.87a9.65,9.65,0,0,1,.68,3.67c0,3.55-2.15,4.68-5.38,4.68s-5.39-1.25-5.39-4.68c0-3.63,2.64-4.17,5.48-4.17h.81Z" transform="translate(-2.84 -2.84)" fill="#1e4b9b"/><path d="M96.27,63.5V59c-1.36,0-2.8.35-2.8,2.08s1.17,2.3,2.8,2.4m1.65,0c1.79-.16,2.5-1,2.5-3a10,10,0,0,0-.57-3.14h1.87a9.69,9.69,0,0,1,.68,3.67c0,3.55-2.15,4.68-5.38,4.68s-5.39-1.25-5.39-4.68c0-3.63,2.64-4.18,5.48-4.18h.81Z" transform="translate(-2.84 -2.84)" fill="#1e4b9b"/><path d="M110.52,79.6h8.72c3.09,0,3.33,1.86,3.33,3s-.24,3-3.33,3h-8.72v2.12h9c4.43,0,5.12-3.18,5.12-5.11s-.69-5.13-5.12-5.13h-9Z" transform="translate(-2.84 -2.84)" fill="#1e4b9b"/><path d="M111.11,62.8a1.37,1.37,0,0,1,1.38,1.39,1.39,1.39,0,1,1-1.38-1.39" transform="translate(-2.84 -2.84)" fill="#1e4b9b"/><path d="M122.36,65.24h-8.27V63.13h8.08c.37,0,.53,0,.53-.58v-.36h1.86a7.7,7.7,0,0,1,0,1c0,1.24-.61,2.08-2.24,2.08" transform="translate(-2.84 -2.84)" fill="#1e4b9b"/><path d="M122.36,24.26H114.1V22.15h8.07c.37,0,.53,0,.53-.59v-.35h1.86a7.6,7.6,0,0,1,0,1c0,1.23-.61,2.07-2.24,2.07" transform="translate(-2.84 -2.84)" fill="#1e4b9b"/><polygon points="111.26 50.9 111.26 48.6 121.76 52.61 121.76 54.33 111.26 58.35 111.26 56.04 119.23 53.48 111.26 50.9" fill="#1e4b9b"/><path d="M118.38,44.22c-1.36,0-2.8.34-2.8,2s1.17,2.29,2.8,2.38Zm1.75,4.4c1.78-.16,2.49-.93,2.49-2.94a9.22,9.22,0,0,0-.57-3.06h1.87a9.22,9.22,0,0,1,.68,3.58c0,3.46-2.15,4.56-5.38,4.56s-5.39-1.22-5.39-4.56c0-3.55,2.64-4.08,5.47-4.07h.83Z" transform="translate(-2.84 -2.84)" fill="#1e4b9b"/><path d="M115.93,34.71a7.64,7.64,0,0,0-.1,1.42,4.58,4.58,0,0,0,.43,2h8.09v2.1H114.08V38.82l.57-.2a4.84,4.84,0,0,1-.8-2.54,6.67,6.67,0,0,1,.09-1.37Z" transform="translate(-2.84 -2.84)" fill="#1e4b9b"/><path d="M121.25,26c1.63,0,3.35,1,3.35,4.17a10.42,10.42,0,0,1-.57,3.22h-2a9.76,9.76,0,0,0,.62-3.24c0-1.65-.7-2.12-1.39-2.12s-1.14.25-1.28,1.84c-.26,3-1.39,3.62-2.91,3.62s-3.25-1-3.25-3.91a7.79,7.79,0,0,1,.6-3.12h1.94a9.37,9.37,0,0,0-.6,3.13c0,1.57.58,1.9,1.31,1.9s.9-.31,1-1.86c.28-3,1.32-3.64,3.13-3.64" transform="translate(-2.84 -2.84)" fill="#1e4b9b"/><path d="M124.46,13.65a10.22,10.22,0,0,1,.14,1.94,2.66,2.66,0,0,1-2.86,3H115.9v1.79h-1.69l-.12-1.79h-2.57l-.29-2.07h2.86V13.66h1.8v2.82h5.58c.86,0,1.18-.47,1.18-1.53a8.84,8.84,0,0,0-.07-1.3Z" transform="translate(-2.84 -2.84)" fill="#1e4b9b"/><polygon points="111.26 0 111.26 2.19 118.65 4.75 111.26 6.97 111.26 9.32 121.01 5.76 124.72 7.2 124.72 5.22 111.26 0" fill="#1e4b9b"/><path d="M115.79,70.92c0-.23,0-1.64,1.31-1.64h7.25V67.19h-7.21c-2.07,0-3.29,1-3.29,3.52a6.17,6.17,0,0,0,.83,3.06l-.57.19v1.4h10.24V73.28h-8.07a5.36,5.36,0,0,1-.49-2.36" transform="translate(-2.84 -2.84)" fill="#1e4b9b"/><path d="M111.11,21.65a1.4,1.4,0,1,1-1.4,1.39,1.37,1.37,0,0,1,1.4-1.39" transform="translate(-2.84 -2.84)" fill="#1e4b9b"/><path d="M70.84,3.43H7.16c-2,0-4.32,1.94-4.32,4V53.73c0,20.34,16.12,34.71,36,34.71s36-14.37,36-34.71V7.61a4.51,4.51,0,0,0-4-4.18M34.23,45.25a16.23,16.23,0,1,1-8.12-31.42,16.23,16.23,0,1,1,8.12,31.42" transform="translate(-2.84 -2.84)" fill="#1e4b9b"/></svg>