<?xml version="1.0" encoding="utf-8"?>
<!-- Generator: Adobe Illustrator 24.0.0, SVG Export Plug-In . SVG Version: 6.00 Build 0)  -->
<svg version="1.1" id="AHR-RGB" xmlns="http://www.w3.org/2000/svg" xmlns:xlink="http://www.w3.org/1999/xlink" x="0px" y="0px"
	 viewBox="0 0 627.3 159.5" style="enable-background:new 0 0 627.3 159.5;" xml:space="preserve">
<style type="text/css">
	.st0{fill:#2E2D62;}
	.st1{fill:#FFFFFF;}
	.st2{fill:#FBBB10;}
	.st3{fill:#F08900;}
</style>
<g>
	<g>
		<g>
			<path class="st0" d="M338.4,61.5h-5.8l-2-6.2h-10.5l-2,6.2h-5.8l9.5-28.1h7.1L338.4,61.5z M329,50.4l-3.2-9.8h-1l-3.2,9.8H329z"
				/>
			<path class="st0" d="M354.2,41.2v5.1c-0.4-0.1-1.1-0.2-1.8-0.2c-2.8,0-5.7,1.4-5.7,5.1v10.2h-5.3V41.4h4.1l0.7,2.2h0.6
				c0.9-0.9,2.9-2.4,6.2-2.4H354.2z"/>
			<path class="st0" d="M372.4,60c0,0-1.7,1.7-4.8,1.7c-3.9,0-7.2-2.6-7.2-6.7v-9.3h-4v-3.9h2c1.4,0,2.3-0.9,2.3-2.4v-4h4.9v6h5.1
				v4.3h-5.1v9c0,1.4,1.1,2.4,2.6,2.4c1.2,0,2.3-0.7,2.3-0.7L372.4,60z"/>
			<path class="st0" d="M382,45.5c-1.7,0-2.4,0.8-2.4,1.7c0,1.4,1.8,1.8,3,2c3.6,0.8,7.2,1.8,7.2,6.1c0,4.1-3.4,6.4-7.6,6.4
				c-4.6,0-8.2-2.8-8.4-7.1h4.9c0.1,1.2,0.9,2.8,3.4,2.8c2.1,0,2.5-1.1,2.5-1.9c0-1.5-1.4-1.9-2.8-2.3c-2.4-0.5-7.5-1.5-7.5-6.1
				c0-3.9,3.8-6,7.7-6c4.5,0,7.5,2.7,7.7,6.1h-4.9C384.7,46.6,384,45.5,382,45.5z"/>
			<path class="st0" d="M423.4,57.6v3.9h-1.2c-2.3,0-4-0.8-4.7-2.6c-1.2,1.6-3.2,2.8-6.4,2.8c-4.5,0-7.4-2.3-7.4-6
				c0-6.3,8.6-6.8,12.4-7c-0.1-2.3-1.4-3.2-3.4-3.2c-2.9,0-3.1,1.7-3.1,1.7h-5c0.4-3.6,3.3-6.1,8.2-6.1c4.8,0,8.2,2.4,8.2,8.2v5.3
				C421,57.1,421.9,57.6,423.4,57.6z M416.1,53.1v-0.4c-3.7,0.4-7.3,0.8-7.3,2.9C408.8,58.7,415.8,58.4,416.1,53.1z"/>
			<path class="st0" d="M445.7,50.6v10.9h-5.3v-9.7c0-0.7,0.5-5.7-3.4-6c-1.9-0.1-5.3,0.9-5.3,6.2v9.4h-5.3V41.4h4.1l0.7,2.5h0.7
				c0.8-1,2.7-2.7,6.1-2.7C443.1,41.2,445.7,45.1,445.7,50.6z"/>
			<path class="st0" d="M468.7,33v28.5h-3.9l-0.6-1.9h-0.6c-1.2,1.4-2.9,2.1-5.1,2.1c-5.1,0-9.4-4.2-9.4-10.3s4.3-10.3,9.4-10.3
				c2.1,0,3.9,0.7,5.2,2.2V33H468.7z M463.7,51.5c0-3.3-1.8-5.3-4.4-5.3c-2.5,0-4.9,1.8-4.9,5.3s2.5,5.3,4.9,5.3
				C461.9,56.8,463.7,54.8,463.7,51.5z"/>
			<path class="st0" d="M336.7,74.6v28.1h-5.4V91h-11.1v11.7h-5.4V74.6h5.4v11.3h11.1V74.6H336.7z"/>
			<path class="st0" d="M360,82.6v20.1h-4l-0.7-2.3h-0.5c-0.8,1-2.6,2.5-5.9,2.5c-5.3,0-8.1-3.8-8.1-9.4V82.6h5.5v9.7
				c0,2.5,0.2,6,3.7,6c1.8,0,4.7-0.9,4.7-6.2v-9.4H360z"/>
			<path class="st0" d="M394.8,91.8v10.9h-5.3V93c0-2.8,0.3-6.3-3.4-6c-1,0.1-3.6,0.5-3.6,6.2v9.4h-5.3V93c0-2.8,0.3-6.3-3.4-6
				c-1,0.1-3.6,0.5-3.6,6.2v9.4h-5.3V82.6h4.1l0.6,2.2h0.6c0.8-1,2.4-2.3,4.9-2.4c2.3,0,4.2,1,5.5,2.8h0.6c1-1.2,2.9-2.8,6.1-2.8
				C392.4,82.3,394.8,86.2,394.8,91.8z"/>
			<path class="st0" d="M417.9,98.8v3.9h-1.2c-2.3,0-4-0.8-4.7-2.6c-1.2,1.6-3.2,2.8-6.4,2.8c-4.5,0-7.4-2.3-7.4-6
				c0-6.3,8.6-6.8,12.4-7c-0.1-2.3-1.4-3.2-3.4-3.2c-2.9,0-3.1,1.7-3.1,1.7h-5c0.4-3.6,3.3-6.1,8.2-6.1c4.8,0,8.2,2.4,8.2,8.2v5.3
				C415.5,98.3,416.4,98.8,417.9,98.8z M410.6,94.3v-0.4c-3.7,0.4-7.3,0.8-7.3,2.9C403.3,99.8,410.3,99.6,410.6,94.3z"/>
			<path class="st0" d="M440.2,91.8v10.9h-5.3V93c0-0.7,0.5-5.8-3.4-6c-1.9-0.1-5.3,0.9-5.3,6.2v9.4h-5.3V82.6h4.1l0.7,2.5h0.7
				c0.8-1,2.7-2.7,6.1-2.7C437.6,82.4,440.2,86.3,440.2,91.8z"/>
			<path class="st0" d="M443.5,77c0-1.9,1.6-3.4,3.5-3.4c1.8,0,3.4,1.5,3.4,3.4c0,1.8-1.5,3.4-3.4,3.4
				C445.1,80.3,443.5,78.8,443.5,77z M449.5,102.7h-5.1V82.6h5.1V102.7z"/>
			<path class="st0" d="M468.4,101.2c0,0-1.7,1.7-4.8,1.7c-3.9,0-7.2-2.6-7.2-6.7v-9.3h-4V83h2c1.4,0,2.3-0.9,2.3-2.4v-4h4.9v6h5.1
				v4.3h-5.1v9c0,1.4,1.1,2.4,2.6,2.4c1.2,0,2.3-0.7,2.3-0.7L468.4,101.2z"/>
			<path class="st0" d="M469.7,77c0-1.9,1.6-3.4,3.5-3.4c1.8,0,3.4,1.5,3.4,3.4c0,1.8-1.5,3.4-3.4,3.4
				C471.3,80.3,469.7,78.8,469.7,77z M475.8,102.7h-5.1V82.6h5.1V102.7z"/>
			<path class="st0" d="M499.2,94.2h-14.7c0.6,3.1,3.1,4.2,5.3,4.2c2.7,0,3.9-1.7,3.9-1.7h5.1c-1.5,4-5.2,6.2-9.1,6.2
				c-5.4,0-10.2-4.1-10.2-10.4c0-6.2,4.7-10.1,10-10.1C494.7,82.4,499.9,86,499.2,94.2z M484.9,90.1h9c-0.6-2.4-2.3-3.3-4.3-3.3
				C487.5,86.8,485.7,88,484.9,90.1z"/>
			<path class="st0" d="M510.2,86.7c-1.7,0-2.4,0.8-2.4,1.7c0,1.4,1.8,1.8,3,2c3.6,0.8,7.2,1.8,7.2,6.1c0,4.1-3.4,6.4-7.6,6.4
				c-4.6,0-8.2-2.8-8.4-7.1h4.9c0.1,1.2,0.9,2.8,3.4,2.8c2.1,0,2.5-1.1,2.5-1.9c0-1.5-1.4-1.9-2.8-2.3c-2.4-0.5-7.5-1.5-7.5-6.1
				c0-3.9,3.8-6,7.7-6c4.5,0,7.5,2.7,7.7,6.1h-4.9C512.9,87.8,512.3,86.7,510.2,86.7z"/>
			<path class="st0" d="M329.1,143.9l-6-10.3h-3.3v10.3h-5.1v-28.1h9.9c4.6,0,8.7,3.1,8.7,8.6c0,3.9-2.2,6.8-5.1,8.2l6.8,11.3H329.1
				z M319.8,128.6h4.4c2.3,0,3.8-1.8,3.8-4.1s-1.6-3.7-3.8-3.7h-4.4V128.6z"/>
			<path class="st0" d="M355.6,135.4H341c0.6,3.1,3.1,4.2,5.3,4.2c2.7,0,3.9-1.7,3.9-1.7h5.1c-1.5,4-5.2,6.2-9.1,6.2
				c-5.4,0-10.2-4.1-10.2-10.4c0-6.2,4.7-10.1,10-10.1C351.1,123.6,356.3,127.2,355.6,135.4z M341.3,131.3h9
				c-0.6-2.4-2.3-3.3-4.3-3.3C343.9,128,342.1,129.2,341.3,131.3z"/>
			<path class="st0" d="M366.6,127.8c-1.7,0-2.4,0.8-2.4,1.7c0,1.4,1.8,1.8,3,2c3.6,0.8,7.2,1.8,7.2,6.1c0,4.1-3.4,6.4-7.6,6.4
				c-4.6,0-8.2-2.8-8.4-7.1h4.9c0.1,1.2,0.9,2.8,3.4,2.8c2.1,0,2.5-1.1,2.5-1.9c0-1.5-1.4-1.9-2.8-2.3c-2.4-0.5-7.5-1.5-7.5-6.1
				c0-3.9,3.8-6,7.7-6c4.5,0,7.5,2.7,7.7,6.1h-4.9C369.3,129,368.7,127.8,366.6,127.8z"/>
			<path class="st0" d="M396.7,135.4H382c0.6,3.1,3.1,4.2,5.3,4.2c2.7,0,3.9-1.7,3.9-1.7h5.1c-1.5,4-5.2,6.2-9.1,6.2
				c-5.4,0-10.2-4.1-10.2-10.4c0-6.2,4.7-10.1,10-10.1C392.1,123.6,397.3,127.2,396.7,135.4z M382.3,131.3h9
				c-0.6-2.4-2.3-3.3-4.3-3.3C384.9,128,383.1,129.2,382.3,131.3z"/>
			<path class="st0" d="M419,140v3.9h-1.2c-2.3,0-4-0.8-4.7-2.6c-1.2,1.6-3.2,2.8-6.4,2.8c-4.5,0-7.4-2.3-7.4-6
				c0-6.3,8.6-6.8,12.4-7c-0.1-2.3-1.4-3.2-3.4-3.2c-2.9,0-3.1,1.7-3.1,1.7h-5c0.4-3.6,3.3-6.1,8.2-6.1c4.8,0,8.2,2.4,8.2,8.2v5.3
				C416.6,139.5,417.5,140,419,140z M411.7,135.4V135c-3.7,0.4-7.3,0.8-7.3,2.9C404.4,141,411.3,140.8,411.7,135.4z"/>
			<path class="st0" d="M434.8,123.6v5.1c-0.4-0.1-1.1-0.2-1.8-0.2c-2.8,0-5.7,1.4-5.7,5.1v10.2H422v-20.1h4.1l0.7,2.2h0.6
				c0.9-0.9,2.9-2.4,6.2-2.4H434.8z"/>
			<path class="st0" d="M446.2,144.1c-5.6,0-10.2-4.3-10.2-10.2c0-6,4.7-10.3,10.4-10.3c4.6,0,8.5,2.9,9.6,7.6h-5.5
				c-0.8-1.6-2.3-2.7-4.3-2.7c-2.8,0-5.1,2.3-5.1,5.4s2.3,5.4,5.1,5.4c1.8,0,3.2-0.9,4.1-2.4h5.5
				C454.6,141.6,450.5,144.1,446.2,144.1z"/>
			<path class="st0" d="M478.5,133v10.9h-5.4v-9.7c0-2,0.3-6-3.3-6c-1.8,0-5.2,0.9-5.2,6.2v9.4h-5.4v-28.5h5.1v10.5h0.7
				c1-1,2.8-2.3,5.8-2.3C476,123.6,478.5,127.4,478.5,133z"/>
			<path class="st0" d="M515.6,135.4c-1.6,5.4-6.1,8.6-11.5,8.6c-7.4,0-12.7-6-12.7-14.3s5.3-14.3,12.7-14.3c5.4,0,10,3.3,11.6,8.6
				h-6.1c-1-2.3-2.9-3.3-5.4-3.3c-4.6,0-7.2,3.7-7.2,9c0,5.2,2.7,9,7.3,9c2.5,0,4.3-1.1,5.3-3.3H515.6z"/>
			<path class="st0" d="M517.8,133.9c0-6.4,5-10.3,10.4-10.3c5.4,0,10.2,3.9,10.2,10.2c0,6.4-4.9,10.3-10.3,10.3
				C522.5,144.1,517.8,140.2,517.8,133.9z M533.1,133.8c0-3.1-1.8-5.6-4.9-5.6s-5.1,2.5-5.1,5.6s2.1,5.6,5.1,5.6
				S533.1,137,533.1,133.8z"/>
			<path class="st0" d="M561,123.8v20.1h-4l-0.7-2.3h-0.5c-0.8,1-2.6,2.5-5.9,2.5c-5.3,0-8.1-3.8-8.1-9.4v-10.9h5.5v9.7
				c0,2.5,0.2,6,3.7,6c1.8,0,4.7-0.9,4.7-6.2v-9.4H561z"/>
			<path class="st0" d="M585.1,133v10.9h-5.3v-9.7c0-0.7,0.5-5.8-3.4-6c-1.9-0.1-5.3,0.9-5.3,6.2v9.4h-5.3v-20.1h4.1l0.7,2.5h0.7
				c0.8-1,2.7-2.7,6.1-2.7C582.5,123.6,585.1,127.4,585.1,133z"/>
			<path class="st0" d="M598.7,144.1c-5.6,0-10.2-4.3-10.2-10.2c0-6,4.7-10.3,10.4-10.3c4.6,0,8.5,2.9,9.6,7.6H603
				c-0.8-1.6-2.3-2.7-4.3-2.7c-2.8,0-5.1,2.3-5.1,5.4s2.3,5.4,5.1,5.4c1.8,0,3.2-0.9,4.1-2.4h5.5
				C607.1,141.6,602.9,144.1,598.7,144.1z"/>
			<path class="st0" d="M611.6,118.2c0-1.9,1.6-3.4,3.5-3.4c1.8,0,3.4,1.5,3.4,3.4c0,1.8-1.5,3.4-3.4,3.4
				C613.2,121.5,611.6,120,611.6,118.2z M617.6,143.9h-5.1v-20.1h5.1V143.9z"/>
			<path class="st0" d="M627.3,115.3v28.5h-5.2v-28.5H627.3z"/>
		</g>
	</g>
	<g>
		<rect y="17.8" class="st0" width="141.7" height="141.7"/>
		<path class="st1" d="M126.1,33.4h-16.5L87.4,57V33.4H55.3v31.4c0,6.7-5,10.6-11.6,10.6s-11.6-3.9-11.6-10.6V33.4H15.6V65
			c0,14.2,11.4,22.3,24.4,23.6H15.6v55.3h16.5v-20.5h7.2l15.3,20.5h71.5v-11.2h-19.4V99.8h19.4V85.2L102.4,61l23.7-24.2V33.4z
			 M70.9,71.7v25.6c-3.5-5.9-11.6-8.7-23.6-8.7C58,87.5,67.9,81.8,70.9,71.7z M32.1,99.8h15.1c6.2,0,8.7,2.4,8.7,6.2
			c0,3.8-2.5,6.3-8.7,6.3H32.1V99.8z M90.2,132.7H70.9v7.7l-13.6-17.9C67.6,120.7,73,115.3,73,106c0-2.3-0.3-4.4-1-6.2h18.2V132.7z
			 M109.6,88.6H87.4V64.9L109.6,88.6z"/>
	</g>
	<g>
		<g>
			<path class="st2" d="M271.5,17.8c2-5.6,3.6-11.6,4.8-17.8H141.7l0,159.5h68.1l-48.9-64C219.3,84.7,256.6,59.4,271.5,17.8"/>
		</g>
		<path class="st3" d="M283.5,17.8h-12c-15,41.6-52.2,66.9-110.6,77.7l48.9,64h73.7V17.8z"/>
	</g>
</g>
</svg>
